HIERARCHY
ROOT Hips
{
  OFFSET 0 0 0
  CHANNELS 6 Xposition Yposition Zposition Zrotation Yrotation Xrotation
  JOINT LeftThigh
  {
    OFFSET 8.409438 0 -5.917753
    CHANNELS 3 Zrotation Yrotation Xrotation
    JOINT LeftLeg
    {
      OFFSET 0 0 -42.358652
      CHANNELS 3 Zrotation Yrotation Xrotation
      JOINT LeftFoot
      {
        OFFSET 0 0 -39.357303
        CHANNELS 3 Zrotation Yrotation Xrotation
      }
    }
  }
  JOINT RightThigh
  {
    OFFSET -8.409438 0 -5.917753
    CHANNELS 3 Zrotation Yrotation Xrotation
    JOINT RightLeg
    {
      OFFSET 0 0 -42.358652
      CHANNELS 3 Zrotation Yrotation Xrotation
      JOINT RightFoot
      {
        OFFSET 0 0 -39.357303
        CHANNELS 3 Zrotation Yrotation Xrotation
      }
    }
  }
  JOINT SpineLow
  {
    OFFSET 0 0 4.719101
    CHANNELS 3 Zrotation Yrotation Xrotation
    JOINT SpineMid
    {
      OFFSET 0 0 12.899191
      CHANNELS 3 Zrotation Yrotation Xrotation
      JOINT Chest
      {
        OFFSET 0 0 12.899191
        CHANNELS 3 Zrotation Yrotation Xrotation
        JOINT LeftShoulder
        {
          OFFSET 7.550562 1.41573 9.438202
          CHANNELS 3 Zrotation Yrotation Xrotation
          JOINT LeftArm
          {
            OFFSET 9.155056 0 4.247191
            CHANNELS 3 Zrotation Yrotation Xrotation
            JOINT LeftForearm
            {
              OFFSET 0 0 25.771955
              CHANNELS 3 Zrotation Yrotation Xrotation
              JOINT LeftHand
              {
                OFFSET 0 0 25.197169
                CHANNELS 3 Zrotation Yrotation Xrotation
              }
            }
          }
        }
        JOINT RightShoulder
        {
          OFFSET -7.550562 1.41573 9.438202
          CHANNELS 3 Zrotation Yrotation Xrotation
          JOINT RightArm
          {
            OFFSET -9.155056 0 4.247191
            CHANNELS 3 Zrotation Yrotation Xrotation
            JOINT RightForearm
            {
              OFFSET 0 0 -25.771955
              CHANNELS 3 Zrotation Yrotation Xrotation
              JOINT RightHand
              {
                OFFSET 0 0 -25.197169
                CHANNELS 3 Zrotation Yrotation Xrotation
              }
            }
          }
        }
        JOINT Neck
        {
          OFFSET 0 0 15.101124
          CHANNELS 3 Zrotation Yrotation Xrotation
          JOINT Head
          {
            OFFSET 0 0 11.325843
            CHANNELS 3 Zrotation Yrotation Xrotation
            End Site
            {
              OFFSET 0 0 14.157303
            }
          }
        }
      }
    }
  }
}
MOTION
Frames: 13
Frame Time: 0.0
0.0  89.887642  0.0  -0.994982  -22.566512  -97.570876  14.260749  -12.502577  5.953012  4.305099  0.309733  23.996932  3.652638  0.867016  1.350632  -8.82182  7.219015  -5.465526  -8.905991  5.444056  14.597483  6.537999  1.196868  -0.671114  6.324553  0.782843  0.426494  17.305711  2.011927  1.360815  17.305712  2.011927  1.360815  2.908428  1.195382  12.878712  164.340731  6.396568  172.906335  -33.43776  61.773618  85.528556  63.536664  -23.401675  20.964658  -8.236043  1.93948  -12.118047  -72.869591  59.841823  -120.704977  -30.619997  10.622969  -88.691343  70.136187  -2.651123  18.128017  -22.866998  -4.064266  4.869582  -17.111984  -3.236053  3.504076  
0.0  89.887642  0.0  -1.282951  -23.257305  -96.100579  16.978027  -13.26288  3.944232  3.141145  0.885794  24.308964  3.53916  0.948836  1.400734  -9.535342  6.305296  -6.138717  -8.143753  5.453458  13.431702  6.316276  1.214191  -0.658812  5.85457  0.799906  0.237907  16.015651  2.114357  0.839083  16.01565  2.114357  0.839083  4.54252  1.634929  11.788955  165.312148  8.341502  173.003535  -32.946172  59.13287  85.510394  72.665343  -23.632997  16.30032  -8.267127  3.751023  -12.587584  -78.27096  58.953788  -125.215442  -30.872759  12.026934  -87.693863  69.281074  -2.501778  18.548816  -20.472372  -3.300314  4.582237  -15.326335  -2.632449  3.329439  
0.0  89.887642  0.0  -1.892965  -23.758053  -94.661776  19.167894  -14.018939  2.357787  2.528626  1.161121  24.278359  3.257513  0.979923  1.453228  -9.889558  5.315336  -6.820834  -7.133253  5.349894  12.659242  6.201272  1.266681  -0.710375  5.369466  0.835864  0.226874  14.689728  2.22158  0.801899  14.689728  2.22158  0.801899  5.974779  1.481833  9.385475  164.985316  8.896809  173.356133  -28.114304  55.998314  88.325851  75.412957  -24.166064  12.105123  -8.290969  4.467883  -14.251487  -82.378054  58.195812  -129.042731  -30.670372  12.383058  -86.73504  69.331758  -2.509867  18.717885  -18.089391  -2.990634  3.712592  -13.5464  -2.355434  2.697986  
0.0  89.887642  0.0  -1.670026  -23.366291  -94.913595  19.649248  -14.236136  2.638267  2.236  1.349284  24.128336  3.110079  1.005614  1.42222  -10.086792  5.481929  -6.320312  -7.02898  5.348657  12.111124  6.587579  1.356861  -0.757491  4.948138  0.903662  0.506449  13.548818  2.354708  1.562694  13.548819  2.354708  1.562694  5.882106  1.497951  7.00338  164.573585  9.637776  173.742026  -26.345953  54.708637  87.069622  76.308111  -25.660795  10.222716  -9.08432  4.688708  -15.719187  -85.440289  57.755418  -132.350904  -31.314931  13.124836  -86.004026  69.349094  -2.723561  18.894615  -16.3732  -2.737565  2.740791  -12.265584  -2.128474  1.983472  
0.0  89.887642  0.0  -1.332847  -23.583695  -95.051237  20.030066  -14.171273  3.018202  2.331067  1.475969  23.848843  3.072115  1.000212  1.328718  -8.757673  5.599774  -5.993582  -8.00996  5.55724  11.764954  6.537911  1.414511  -0.794028  4.623795  0.888876  0.672858  12.667015  2.290872  2.001775  12.667015  2.290872  2.001775  5.519178  2.290793  5.720023  164.216161  10.495489  174.392793  -24.252482  53.436418  86.44123  75.152661  -26.54354  8.978378  -8.842417  5.037794  -15.760634  -88.526562  56.614403  -135.451968  -32.224593  13.633699  -85.433617  68.797694  -2.953948  18.979129  -14.74631  -2.171394  2.165905  -11.050882  -1.682001  1.572889  
0.0  89.887642  0.0  -0.983221  -24.560404  -95.204281  20.514956  -14.013622  3.565597  2.952014  1.485623  23.494805  3.093499  1.002876  1.260529  -6.209627  5.667769  -5.816679  -9.280535  5.84431  11.734893  6.41368  1.441772  -0.823145  4.309095  0.837087  0.682864  11.804944  2.158099  2.009255  11.804945  2.158099  2.009255  6.291997  2.975052  5.491298  162.981898  10.609161  174.873319  -23.73786  51.471474  85.3512  73.334944  -26.404182  9.493922  -6.410597  4.92119  -15.155887  -91.155724  55.98769  -137.897934  -32.807844  13.885365  -85.084744  67.957413  -2.990411  18.821659  -12.855158  -1.559737  2.262822  -9.635158  -1.218067  1.665062  
0.0  89.887642  0.0  -0.593222  -25.627061  -95.660744  20.713994  -13.864091  4.476606  3.889809  1.41793  23.109611  3.077113  1.020402  1.228353  -3.570231  5.771381  -5.480675  -10.356074  6.167891  11.839803  6.34199  1.489927  -0.847259  3.989833  0.801431  0.658373  10.93004  2.075153  1.926554  10.93004  2.075153  1.926554  7.426027  3.336597  5.542308  161.637033  10.381777  174.9591  -24.865562  49.330529  83.971964  72.90181  -24.981693  11.030141  -3.691944  4.780096  -13.608313  -91.267828  55.039274  -138.112108  -32.61281  13.403323  -84.940566  67.501295  -2.973573  19.134281  -11.07192  -1.188803  2.685409  -8.298611  -0.940647  1.993217  
0.0  89.887642  0.0  -0.433094  -26.819228  -96.26809  20.889563  -14.023989  5.467707  4.901141  1.360858  22.833296  2.990287  1.049271  1.219284  -1.589121  5.587492  -4.977378  -10.552793  6.538937  12.064253  6.338266  1.506142  -0.895083  3.768813  0.777898  0.647177  10.324632  2.019487  1.885651  10.324632  2.019487  1.885651  8.221801  3.218419  5.667716  160.973084  10.30059  174.953602  -24.784615  47.38039  84.027749  73.547027  -23.622564  11.452371  -1.794298  4.689638  -11.7598  -89.118454  53.946294  -136.401137  -32.238831  12.894098  -84.806472  66.988906  -3.104567  19.346037  -9.732588  -1.140466  3.096691  -7.293646  -0.904969  2.304969  
0.0  89.887642  0.0  -0.47632  -27.961304  -96.735915  21.170141  -14.353706  6.27329  5.670641  1.40319  22.701136  2.894787  1.061263  1.178959  -0.779903  5.276429  -4.615732  -10.088103  6.745318  12.29457  6.357261  1.540999  -0.916418  3.643473  0.753015  0.615833  9.980222  1.960114  1.792705  9.980222  1.960114  1.792705  8.870658  2.787071  5.835889  160.842797  10.332115  174.863875  -24.013934  46.043221  84.383834  73.618594  -23.17663  11.272643  -0.548722  4.316325  -9.862969  -86.457892  52.878815  -134.522682  -31.788625  12.235433  -84.455597  66.7034  -3.273798  19.236281  -8.889547  -1.210681  3.408271  -6.660407  -0.957865  2.539132  
0.0  89.887642  0.0  -0.485603  -28.888815  -97.215119  21.381397  -14.644796  6.985938  5.92165  1.595847  22.665933  2.881504  1.08017  1.108957  -0.788401  5.237008  -4.253134  -9.030115  6.709222  12.527599  6.443027  1.588723  -0.911274  3.6248  0.727903  0.621878  9.928514  1.891278  1.804861  9.928514  1.891278  1.804861  9.154449  2.452777  5.92464  160.818914  10.424798  174.72062  -24.052422  45.79978  84.1828  72.727511  -23.285496  11.261935  -0.147236  3.845642  -8.112523  -84.108384  51.775833  -132.969322  -31.347953  11.745995  -84.004525  66.306231  -3.461266  18.916757  -8.587133  -1.260306  3.465612  -6.43319  -0.994198  2.581996  
0.0  89.887642  0.0  -0.391339  -29.619147  -97.570519  21.690048  -14.815233  7.502039  5.581751  1.967753  22.655256  3.053966  1.160318  1.059641  -1.461382  5.403781  -4.181883  -7.911459  6.560298  12.745505  6.517495  1.584737  -0.890826  3.696033  0.702182  0.676805  10.123835  1.810733  1.952624  10.123835  1.810733  1.952624  8.851163  2.338772  5.81708  160.893974  10.357815  174.652324  -24.803109  46.349846  83.60564  71.463852  -23.88034  11.176733  -0.344524  3.57631  -6.955324  -82.048425  50.840653  -131.581152  -31.003329  11.220145  -83.629287  66.376101  -3.811116  18.575133  -8.724113  -1.240154  3.188602  -6.536571  -0.975903  2.374225  
0.0  89.887642  0.0  -0.359781  -30.224797  -97.750532  21.984238  -15.02058  7.734369  5.150346  2.457096  22.798232  3.335194  1.267547  1.051827  -2.134913  5.545849  -4.338954  -7.039226  6.433359  13.010995  6.663223  1.545993  -0.873051  3.797289  0.641946  0.730789  10.399795  1.634978  2.092914  10.399795  1.634979  2.092914  8.43625  2.50593  5.739133  161.02276  10.273311  174.569003  -25.789987  47.151389  82.888759  70.366109  -24.68845  10.813429  -0.736325  3.543619  -6.302735  -80.132751  50.287376  -130.257439  -30.700615  11.138563  -83.321976  66.505105  -4.082769  18.160269  -9.062751  -1.130163  2.815629  -6.791809  -0.889633  2.095437  
0.0  89.887642  0.0  -0.400818  -30.691682  -97.79143  22.15454  -15.244867  7.703082  4.997149  2.878351  23.204754  3.502525  1.365804  1.085279  -2.614808  5.579165  -4.635957  -6.164127  6.355749  13.388522  6.688801  1.497092  -0.885294  3.872574  0.55773  0.737075  10.602647  1.402022  2.098235  10.602647  1.402022  2.098235  8.281706  2.746245  5.928682  161.125459  10.213622  174.445843  -26.881585  47.777117  82.094067  69.707653  -25.376961  10.361861  -0.890937  3.469692  -5.757184  -78.707851  50.043966  -129.236479  -30.439696  11.164925  -83.239838  66.659168  -4.178621  17.81558  -9.361682  -0.987535  2.599272  -7.01704  -0.780705  1.934814  
